<svg width="102" height="104" viewBox="0 0 102 104" fill="none" xmlns="http://www.w3.org/2000/svg">
<g filter="url(#filter0_ddd_1_375)">
<circle cx="51" cy="46" r="26" fill="white"/>
</g>
<path fill-rule="evenodd" clip-rule="evenodd" d="M51 41C52.104 41 53 40.104 53 39C53 37.896 52.104 37 51 37C49.896 37 49 37.896 49 39C49 40.104 49.896 41 51 41ZM51 44C49.896 44 49 44.896 49 46C49 47.104 49.896 48 51 48C52.104 48 53 47.104 53 46C53 44.896 52.104 44 51 44ZM49 53C49 51.896 49.896 51 51 51C52.104 51 53 51.896 53 53C53 54.104 52.104 55 51 55C49.896 55 49 54.104 49 53Z" fill="#231F20"/>
<mask id="mask0_1_375" style="mask-type:alpha" maskUnits="userSpaceOnUse" x="49" y="37" width="4" height="18">
<path fill-rule="evenodd" clip-rule="evenodd" d="M51 41C52.104 41 53 40.104 53 39C53 37.896 52.104 37 51 37C49.896 37 49 37.896 49 39C49 40.104 49.896 41 51 41ZM51 44C49.896 44 49 44.896 49 46C49 47.104 49.896 48 51 48C52.104 48 53 47.104 53 46C53 44.896 52.104 44 51 44ZM49 53C49 51.896 49.896 51 51 51C52.104 51 53 51.896 53 53C53 54.104 52.104 55 51 55C49.896 55 49 54.104 49 53Z" fill="white"/>
</mask>
<g mask="url(#mask0_1_375)">
<rect x="39" y="34" width="24" height="24" fill="#707C97"/>
</g>
<defs>
<filter id="filter0_ddd_1_375" x="0" y="0" width="102" height="104" filterUnits="userSpaceOnUse" color-interpolation-filters="sRGB">
<feFlood flood-opacity="0" result="BackgroundImageFix"/>
<feColorMatrix in="SourceAlpha" type="matrix" values="0 0 0 0 0 0 0 0 0 0 0 0 0 0 0 0 0 0 127 0" result="hardAlpha"/>
<feOffset dy="5"/>
<feGaussianBlur stdDeviation="12.5"/>
<feColorMatrix type="matrix" values="0 0 0 0 0.164706 0 0 0 0 0.545098 0 0 0 0 0.94902 0 0 0 0.07 0"/>
<feBlend mode="normal" in2="BackgroundImageFix" result="effect1_dropShadow_1_375"/>
<feColorMatrix in="SourceAlpha" type="matrix" values="0 0 0 0 0 0 0 0 0 0 0 0 0 0 0 0 0 0 127 0" result="hardAlpha"/>
<feOffset dy="7"/>
<feGaussianBlur stdDeviation="12.5"/>
<feColorMatrix type="matrix" values="0 0 0 0 0.164706 0 0 0 0 0.545098 0 0 0 0 0.94902 0 0 0 0.03 0"/>
<feBlend mode="normal" in2="effect1_dropShadow_1_375" result="effect2_dropShadow_1_375"/>
<feColorMatrix in="SourceAlpha" type="matrix" values="0 0 0 0 0 0 0 0 0 0 0 0 0 0 0 0 0 0 127 0" result="hardAlpha"/>
<feOffset dy="10"/>
<feGaussianBlur stdDeviation="7.5"/>
<feColorMatrix type="matrix" values="0 0 0 0 0 0 0 0 0 0 0 0 0 0 0 0 0 0 0.03 0"/>
<feBlend mode="normal" in2="effect2_dropShadow_1_375" result="effect3_dropShadow_1_375"/>
<feBlend mode="normal" in="SourceGraphic" in2="effect3_dropShadow_1_375" result="shape"/>
</filter>
</defs>
</svg>
