<svg width="40" height="40" viewBox="0 0 40 40" fill="none" xmlns="http://www.w3.org/2000/svg">
<rect width="40" height="40" rx="6" fill="white" fill-opacity="0.25"/>
<path fill-rule="evenodd" clip-rule="evenodd" d="M25.4443 28H14.5553C14.2493 28 14.0003 27.776 14.0003 27.5V12.5C14.0003 12.224 14.2493 12 14.5553 12H19.0003V16.15C19.0003 17.722 20.2173 19 21.7143 19H26.0003V27.5C26.0003 27.776 25.7503 28 25.4443 28ZM25.6493 17H21.7143C21.3203 17 21.0003 16.619 21.0003 16.15V12H21.1123L25.6493 17ZM27.7403 16.328L22.2963 10.328C22.1073 10.119 21.8383 10 21.5553 10H14.5553C13.1463 10 12.0003 11.122 12.0003 12.5V27.5C12.0003 28.878 13.1463 30 14.5553 30H25.4443C26.8533 30 28.0003 28.878 28.0003 27.5V17C28.0003 16.751 27.9073 16.512 27.7403 16.328Z" fill="#231F20"/>
<mask id="mask0_1_510" style="mask-type:alpha" maskUnits="userSpaceOnUse" x="12" y="10" width="17" height="20">
<path fill-rule="evenodd" clip-rule="evenodd" d="M25.4443 28H14.5553C14.2493 28 14.0003 27.776 14.0003 27.5V12.5C14.0003 12.224 14.2493 12 14.5553 12H19.0003V16.15C19.0003 17.722 20.2173 19 21.7143 19H26.0003V27.5C26.0003 27.776 25.7503 28 25.4443 28ZM25.6493 17H21.7143C21.3203 17 21.0003 16.619 21.0003 16.15V12H21.1123L25.6493 17ZM27.7403 16.328L22.2963 10.328C22.1073 10.119 21.8383 10 21.5553 10H14.5553C13.1463 10 12.0003 11.122 12.0003 12.5V27.5C12.0003 28.878 13.1463 30 14.5553 30H25.4443C26.8533 30 28.0003 28.878 28.0003 27.5V17C28.0003 16.751 27.9073 16.512 27.7403 16.328Z" fill="white"/>
</mask>
<g mask="url(#mask0_1_510)">
<rect x="8" y="8" width="24" height="24" fill="white"/>
</g>
</svg>
