<svg width="20" height="20" viewBox="0 0 20 20" fill="none" xmlns="http://www.w3.org/2000/svg">
<path fill-rule="evenodd" clip-rule="evenodd" d="M15.8333 15.2132C15.8333 15.5549 15.555 15.8332 15.2133 15.8332H14.1667V14.1665H15.8333V15.2132ZM4.16667 15.2132V14.1665H5.83333V15.8332H4.78667C4.445 15.8332 4.16667 15.5549 4.16667 15.2132ZM4.78667 4.16654H5.83333V5.83321H4.16667V4.78654C4.16667 4.44488 4.445 4.16654 4.78667 4.16654ZM15.8333 4.78654V5.83321H14.1667V4.16654H15.2133C15.555 4.16654 15.8333 4.44488 15.8333 4.78654ZM14.1667 12.4999H15.8333V10.8332H14.1667V12.4999ZM14.1667 9.16654H15.8333V7.49988H14.1667V9.16654ZM7.5 15.8332H12.5V4.16654H7.5V15.8332ZM4.16667 12.4999H5.83333V10.8332H4.16667V12.4999ZM4.16667 9.16654H5.83333V7.49988H4.16667V9.16654ZM15.2133 2.49988H4.78667C3.52583 2.49988 2.5 3.52654 2.5 4.78654V15.2132C2.5 16.474 3.52583 17.4999 4.78667 17.4999H15.2133C16.4742 17.4999 17.5 16.474 17.5 15.2132V4.78654C17.5 3.52654 16.4742 2.49988 15.2133 2.49988Z" fill="#231F20"/>
<mask id="mask0_1_184" style="mask-type:alpha" maskUnits="userSpaceOnUse" x="2" y="2" width="16" height="16">
<path fill-rule="evenodd" clip-rule="evenodd" d="M15.8333 15.2132C15.8333 15.5549 15.555 15.8332 15.2133 15.8332H14.1667V14.1665H15.8333V15.2132ZM4.16667 15.2132V14.1665H5.83333V15.8332H4.78667C4.445 15.8332 4.16667 15.5549 4.16667 15.2132ZM4.78667 4.16654H5.83333V5.83321H4.16667V4.78654C4.16667 4.44488 4.445 4.16654 4.78667 4.16654ZM15.8333 4.78654V5.83321H14.1667V4.16654H15.2133C15.555 4.16654 15.8333 4.44488 15.8333 4.78654ZM14.1667 12.4999H15.8333V10.8332H14.1667V12.4999ZM14.1667 9.16654H15.8333V7.49988H14.1667V9.16654ZM7.5 15.8332H12.5V4.16654H7.5V15.8332ZM4.16667 12.4999H5.83333V10.8332H4.16667V12.4999ZM4.16667 9.16654H5.83333V7.49988H4.16667V9.16654ZM15.2133 2.49988H4.78667C3.52583 2.49988 2.5 3.52654 2.5 4.78654V15.2132C2.5 16.474 3.52583 17.4999 4.78667 17.4999H15.2133C16.4742 17.4999 17.5 16.474 17.5 15.2132V4.78654C17.5 3.52654 16.4742 2.49988 15.2133 2.49988Z" fill="white"/>
</mask>
<g mask="url(#mask0_1_184)">
<rect width="20" height="20" fill="#00C305"/>
</g>
</svg>
